<?xml version="1.0" encoding="UTF-8"?><svg id="Layer_2" xmlns="http://www.w3.org/2000/svg" viewBox="0 0 154.59 201.32"><defs><style>.cls-1{fill-rule:evenodd;}.cls-1,.cls-2{fill:#f5740f;}.cls-3{fill:#ffa720;}</style></defs><g id="Layer_1-2"><path class="cls-1" d="M66.66,46.77c7.76-17.07,7.45-32.71-.86-44.22-2.86-3.95-.56-3.18,4.27,1.44,6.73,6.43,9.53,11.93,13.12,25.78,1.84,7.07,4.99,16.53,7.01,21.02,4.63,10.3,12.18,23.66,12.65,22.38.2-.53-1.61-5.9-4.02-11.92-8.45-21.13-9.74-28.01-6.88-36.66.81-2.43,2.47-5.58,3.69-7,2.69-3.11,2.89-1.9.44,2.57-4.15,7.57-1.58,20.58,7.24,36.66,4.61,8.41,9.3,23.12,9.3,29.19,0,2.21.48,4.29,1.06,4.62.67.38,1.05-2.33,1.05-7.43,0-6.82-.65-9.82-4.33-19.98-5.1-14.07-6.29-23.01-3.68-27.61.95-1.68,1.84-3.06,1.97-3.05.13,0,.25,4,.28,8.88.04,8.45.28,9.36,4.97,18.96,2.71,5.54,6.23,14.18,7.83,19.2,2.57,8.04,2.9,10.57,2.75,21.35-.09,6.73-.46,13.1-.83,14.16-.37,1.06-.23,1.93.31,1.93,1.31,0,6.13-10.1,7.01-14.7,1.1-5.7-1.35-17.52-5.69-27.53-4.08-9.41-6.02-17.4-4.69-19.35.43-.64,1.34.96,2.11,3.71.75,2.65,3.24,8.45,5.54,12.87,7.68,14.78,8.88,19.21,8.29,30.61-.58,11.15-3.37,20.01-9.27,29.39-1.83,2.91-3.09,5.49-2.8,5.75.28.26,2.49-1.6,4.9-4.14,4.95-5.2,10.91-15.76,12.81-22.68,1.78-6.49.69-17.76-2.67-27.8-3.24-9.65-3.13-12.43.22-6.31,17.05,31.07,4.72,61.75-33.5,83.33-11.43,6.46-18.23,11.45-20.22,14.85-.98,1.67-.92,1.83.32.96.82-.57,3.39-2.36,5.71-3.98,4.47-3.12,19.95-11.78,21.06-11.78,1.9,0,18.7-11.06,22.49-14.8,9.83-9.71,13.97-18.16,16.53-33.68l1.26-7.68.82,5.62c2.81,19.18-10.7,40.52-33.18,52.44-2.61,1.39-7.38,3.91-12.15,6.44-2.11,1.12-4.22,2.24-6.15,3.26-11.24,5.96-21.03,13.65-22.09,17.34-.39,1.37.64.88,3.86-1.82,6.68-5.6,12.53-8.92,28.36-16.1,15.07-6.83,25.27-13.41,31.77-20.5,4.58-5,5.07-3.55.7,2.09-8.34,10.76-15.48,15.97-31.77,23.19-24.44,10.83-28.98,13.79-32.75,21.38-2.45,4.93-4.42,5.17-6.69.82-3.88-7.45-8.43-10.79-25.06-18.42-8.81-4.04-18.87-9.08-22.35-11.19-7.86-4.78-15.93-12.59-19.84-19.21l-2.97-5.04,5.53,5.59c7.91,8,15.38,12.9,30.98,20.32,16.41,7.81,27.39,14.3,30.36,17.96,3.25,4,4.38,3.25,1.68-1.12-3.41-5.52-12.3-11.55-30.33-20.58-23.87-11.95-35.06-23.18-40.25-40.41-1.79-5.94-2.17-9.14-1.69-14.29.95-10.28,2.5-9.75,3,1.02.5,10.65,3.32,17.85,10.49,26.82,6.45,8.07,11.95,11.93,33.25,23.31,7.06,3.78,14.81,8.37,17.23,10.2,5.46,4.15,6.09,4.2,2.7.22-2.67-3.15-11.47-9.19-23.47-16.12-6.85-3.96-19.19-14.42-23.71-20.11-7.71-9.7-11.5-20.39-11.64-32.86-.11-10.17,1.35-16.71,5.66-25.38,3.18-6.4,5.76-8.36,3.88-2.95-2.29,6.58-5.06,17.66-5.7,22.78-1.29,10.35,5.31,26.57,14.47,35.61,2.37,2.34,4.11,3.81,3.87,3.29-.24-.53-2.38-4.7-4.77-9.26-5.3-10.15-6.96-16.9-6.94-28.19.02-10.32,1.76-16.33,8.23-28.44,3.4-6.36,4.72-10.02,4.72-13.04,0-2.56.41-3.97,1.05-3.61,2.2,1.24.9,8.91-3.39,20.1-4.12,10.73-4.45,12.32-4.48,21.66-.03,8.8.3,10.69,2.56,14.88l2.59,4.8.66-16.32c.58-14.49.99-17.18,3.6-24,1.62-4.22,3.66-8.96,4.53-10.52,4.13-7.39,7.63-19.24,7.63-25.85,0-5.39.26-6.49,1.32-5.53.87.8,1.27,4.01,1.19,9.55-.11,6.77-.87,10.44-4.02,19.39-2.58,7.33-4.1,13.75-4.52,19.11-.74,9.4,1.11,10.33,2.17,1.1.95-8.25,4.28-16.78,14.43-37.01,3.97-7.91,5.01-18.88,2.6-27.36-.66-2.33-.63-2.34,1-.51,4.97,5.59,4.74,19.12-.56,32.67-1.86,4.75-4.24,10.8-5.3,13.44-1.05,2.64-1.93,5.88-1.95,7.2-.03,2.63,7.88-11.48,14.08-25.14ZM36.73,124.97c0-18.82,14.33-40.09,35.31-52.4,2.32-1.36,4.69-2.5,5.28-2.53,1.94-.1,14.67,7.99,19.52,12.4,2.62,2.39,6.32,6.44,8.21,9.01,20.79,28.19,15.95,54.97-12.01,66.5-5.17,2.13-7.8,2.58-15.32,2.63-17.25.1-30.09-7.1-37.44-20.97-3.15-5.94-3.54-7.59-3.54-14.64Z"/><path class="cls-3" d="M84.78,82.37c-4.11-2.79-7.71-3.36-11.72-1.87-4.51,1.67-18.48,14.71-22.02,20.56-6.08,10.05-8.35,17.69-7.78,26.27.82,12.45,6.19,19.79,18.23,24.92,5.5,2.34,7.56,2.68,15.81,2.64,11.89-.05,18.34-2.4,25.32-9.2,5.64-5.49,7.59-9.26,8.52-16.49,2.09-16.25-8.23-34.6-26.36-46.85ZM77.3,149.75c-15.72,0-28.47-10.53-28.47-23.52s12.75-23.52,28.47-23.52,28.46,10.54,28.46,23.52-12.75,23.52-28.46,23.52Z"/><path class="cls-2" d="M83.65,146.19c.54,1.1,1.88,1.58,2.99,1.05,3.12-1.49,5.7-3.71,7.4-6.41,2.06-3.27,2.72-7.04,1.85-10.67-.87-3.63-3.19-6.9-6.59-9.24-3.4-2.34-7.66-3.62-12.04-3.62-4.39,0-8.64,1.3-12.03,3.65-3.39,2.36-5.7,5.63-6.55,9.26-.85,3.63-.18,7.41,1.9,10.67,1.71,2.69,4.3,4.9,7.42,6.39,1.11.53,2.45.04,2.99-1.06l4.23-8.67c.84-1.72,3.29-1.73,4.14,0l4.27,8.66Z"/></g></svg>