<?xml version="1.0" encoding="UTF-8"?><svg id="Layer_2" xmlns="http://www.w3.org/2000/svg" viewBox="0 0 708.79 217.35"><defs><style>.cls-1,.cls-2{fill-rule:evenodd;}.cls-1,.cls-3{fill:#fff;}.cls-2,.cls-4{fill:#f5740f;}.cls-5{fill:#ffa720;}</style></defs><g id="Layer_1-2"><path class="cls-3" d="M486.36,62.77v63.37h-6.4V57.01c0-3.58-.9-6.4-2.69-8.45-1.71-2.05-4.65-3.07-8.83-3.07h-.64v-3.84h8.96c4.78,0,8.66.64,11.65,1.92,3.07,1.19,5.63,3.12,7.68,5.76l44.04,51.21v-58.89h6.4v84.88h-5.89l-54.28-63.75Z"/><path class="cls-3" d="M429.27,128.48c-4.78,0-9.39-.64-13.83-1.92-4.44-1.19-8.07-2.94-10.88-5.25-2.82-2.39-4.23-5.12-4.23-8.19v-14.98h3.58c1.28,8.71,3.97,14.98,8.07,18.82,4.1,3.84,9.81,5.76,17.15,5.76,4.95,0,8.88-1.07,11.78-3.2,2.9-2.13,4.35-5.21,4.35-9.22,0-3.41-1.07-6.32-3.2-8.71-2.13-2.39-5.46-4.99-9.98-7.81l-15.75-9.47c-5.72-3.33-9.81-6.78-12.29-10.37-2.39-3.58-3.58-7.77-3.58-12.55,0-6.74,2.56-12.08,7.68-16,5.21-3.93,12.2-5.89,20.99-5.89,4.78,0,9.39.64,13.83,1.92,4.44,1.19,8.07,2.99,10.88,5.38,2.82,2.3,4.23,4.99,4.23,8.07v14.98h-3.58c-1.45-8.71-4.14-14.98-8.06-18.82-3.93-3.84-9.22-5.76-15.88-5.76-4.61,0-8.28,1.11-11.01,3.33-2.65,2.22-3.97,5.25-3.97,9.09,0,3.33,1.02,6.1,3.07,8.32,2.13,2.13,5.55,4.57,10.24,7.3l15.75,9.35c5.97,3.5,10.24,6.91,12.8,10.24,2.65,3.24,3.97,7.17,3.97,11.78,0,7.43-2.82,13.27-8.45,17.54-5.55,4.18-13.44,6.27-23.68,6.27Z"/><path class="cls-4" d="M371.53,124.73c1.62.94,3.97,1.41,7.04,1.41h15.36v-3.84h-1.28c-3.58,0-5.97-1.02-7.17-3.07-8.09-.41-15.66-6.66-18.43-9.73,0,4.44.34,7.85,1.02,10.24.68,2.3,1.83,3.97,3.46,4.99Z"/><path class="cls-1" d="M367.05,99.25v-57.61h16.64v67.85c-5.26,0-13.28-6.83-16.64-10.24Z"/><path class="cls-4" d="M385.49,119.22c-1.19-2.13-1.79-5.38-1.79-9.73-5.26,0-13.28-6.83-16.64-10.24v10.24c2.77,3.07,10.34,9.32,18.43,9.73Z"/><path class="cls-3" d="M351.95,127.42c-4.69,0-8.96-1.37-12.8-4.1-3.84-2.82-7.85-7.64-12.03-14.47l-12.8-21.38h-5.12v38.66h-16.77V58.29c0-4.35-.6-7.55-1.79-9.6-1.19-2.13-3.58-3.2-7.17-3.2h-1.28v-3.84h35.33c8.88,0,16.86,1.62,23.94,4.86,7.08,3.24,10.63,9.47,10.63,18.69,0,10.67-6.91,17.75-20.74,21.25l13.44,22.4c5.04,8.45,10.33,13.14,15.87,14.08v3.2c-.68.34-1.92.64-3.71.9-1.79.26-3.46.38-4.99.38ZM316.87,82.35c4.78,0,8.83-1.41,12.16-4.22,3.41-2.9,5.12-7.43,5.12-13.57s-1.66-10.54-4.99-13.44c-3.33-2.9-7.21-4.35-11.65-4.35-2.47,0-4.4.17-5.76.51l-2.56.38v34.69h7.68Z"/><path class="cls-3" d="M266.43,127.42c-5.38,0-10.54-1.07-15.49-3.2-4.86-2.22-10.11-6.27-15.75-12.16l-20.61-21.51v35.59h-16.64l-.13-67.85c0-4.35-.6-7.55-1.79-9.6-1.19-2.13-3.58-3.2-7.17-3.2h-1.28v-3.84h15.36c2.99,0,5.29.51,6.91,1.54,1.71,1.02,2.9,2.73,3.58,5.12.77,2.39,1.15,5.72,1.15,9.99v24.32l22.15-27.52c3.16-4.1,6.53-7.34,10.11-9.73,3.67-2.48,7.85-3.71,12.55-3.71h8.96v4.48c-5.29,0-9.86.68-13.7,2.05-3.76,1.28-7,3.63-9.73,7.04l-19.07,23.55,29.57,30.72c3.16,3.5,6.7,6.57,10.63,9.22,4.01,2.56,7.25,4.01,9.73,4.35v3.07c-2.56.85-5.68,1.28-9.35,1.28Z"/><path class="cls-3" d="M631.79,126.65c-5.38,0-10.24-1.11-14.59-3.33-4.35-2.31-7.89-6.74-10.63-13.32l-2.94-7.17h-34.05l-10.5,23.3h-6.66l37.76-84.49h5.76l28.68,68.36c3.24,7.94,7.68,12.2,13.31,12.8v3.2c-1.53.43-3.58.64-6.14.64ZM572.26,97.08h28.93l-14.08-33.41-14.85,33.41Z"/><path class="cls-4" d="M686.97,201.32c-4.81,0-8.55-1.07-11.22-3.21-2.61-2.2-3.92-5.14-3.92-8.82,0-2.97.68-5.43,2.05-7.39,1.42-1.96,3.89-3.44,7.39-4.45,3.5-1.01,8.37-1.51,14.61-1.51h1.33c0-5.17-.71-8.82-2.14-10.96-1.42-2.2-3.53-3.3-6.32-3.3-2.32,0-4.22.56-5.7,1.69-1.49,1.13-2.55,3.24-3.21,6.32h-4.9c0-2.02.12-3.74.36-5.17.3-1.42.92-2.67,1.87-3.74,1.84-2.08,6.29-3.12,13.36-3.12,5.94,0,10.45,1.57,13.54,4.72,3.15,3.09,4.72,7.75,4.72,13.98v24.05h-7.57l-3.12-4.01h-.44c-.54.83-1.37,1.66-2.49,2.49-2.02,1.6-4.75,2.4-8.19,2.4ZM689.64,196.87c1.25,0,2.32-.24,3.21-.71.89-.54,1.75-1.25,2.58-2.14.77-.83,1.37-1.81,1.78-2.94v-11.13h-1.33c-4.22,0-7.28.77-9.17,2.32-1.9,1.48-2.85,3.83-2.85,7.04,0,2.43.5,4.31,1.51,5.61,1.01,1.31,2.43,1.96,4.28,1.96Z"/><path class="cls-4" d="M658.33,153.75c-2.14,0-3.8-.65-4.99-1.96-1.13-1.31-1.69-2.91-1.69-4.81,0-1.54.44-2.76,1.33-3.65.95-.89,2.14-1.33,3.56-1.33,2.14,0,3.77.65,4.9,1.96,1.19,1.31,1.78,2.91,1.78,4.81,0,1.54-.48,2.76-1.43,3.65-.89.89-2.05,1.34-3.47,1.34ZM652.54,170.14c0-3.03-.42-5.25-1.25-6.68-.83-1.48-2.49-2.23-4.99-2.23h-.89v-2.67h10.69c2.14,0,3.77.36,4.9,1.07,1.13.71,1.93,1.9,2.4,3.56.47,1.6.71,3.92.71,6.95v30.28h-11.58v-30.28Z"/><path class="cls-4" d="M618.79,201.32c-6,0-10.63-2.02-13.9-6.06-3.21-4.1-4.81-9.35-4.81-15.77s1.63-11.64,4.9-15.68c3.33-4.1,8.07-6.15,14.25-6.15,2.14,0,4.42.44,6.86,1.34.89.41,1.72.86,2.49,1.33v-7.13c0-3.03-.42-5.25-1.25-6.68-.83-1.48-2.49-2.23-4.99-2.23h-.89v-2.67h10.69c2.14,0,3.77.36,4.9,1.07,1.13.71,1.93,1.9,2.4,3.56.47,1.6.71,3.92.71,6.95v47.21h-7.57l-3.12-4.01h-.45c-.53.83-1.36,1.66-2.49,2.49-2.02,1.6-4.6,2.4-7.75,2.4ZM620.57,197.31c2.2,0,4.19-.95,5.97-2.85.65-.65,1.34-1.63,2.05-2.94v-27.17c-.59-.47-1.31-.92-2.14-1.34-1.9-.89-3.71-1.33-5.43-1.33-5.94,0-8.91,5.94-8.91,17.81,0,5.52.65,9.89,1.96,13.09,1.37,3.15,3.53,4.72,6.5,4.72Z"/><path class="cls-4" d="M575.25,201.32c-4.1,0-7.69-.95-10.78-2.85-3.09-1.9-5.49-4.48-7.21-7.75-1.66-3.33-2.49-7.06-2.49-11.22,0-4.63.83-8.58,2.49-11.85,1.72-3.27,4.07-5.73,7.04-7.39,2.97-1.72,6.32-2.58,10.07-2.58s7.01.74,9.98,2.23c2.97,1.49,5.31,3.59,7.04,6.33,1.72,2.67,2.58,5.76,2.58,9.26,0,1.13-.06,2.41-.18,3.83l-.18,1.78h-26.81c0,5.64.86,9.77,2.58,12.38,1.72,2.55,4.13,3.83,7.21,3.83,2.85,0,5.23-.62,7.13-1.87,1.96-1.31,3.83-3.15,5.61-5.52l2.76,2.05c-1.72,2.67-3.89,4.9-6.5,6.68-2.55,1.78-6,2.67-10.33,2.67ZM581.93,177.09c0-5.58-.65-9.53-1.96-11.85-1.31-2.37-3.18-3.56-5.61-3.56-2.26,0-4.1,1.22-5.52,3.65-1.37,2.37-2.05,6.29-2.05,11.76h15.14Z"/><path class="cls-4" d="M508.06,170.15c0-3.03-.41-5.26-1.25-6.68-.77-1.48-2.4-2.23-4.9-2.23h-.89v-2.67h8.82c2.08,0,3.68.3,4.81.89,1.13.53,2.02,1.48,2.67,2.85,3.5-3.09,7.54-4.63,12.11-4.63,6,0,10.6,2.05,13.81,6.15,3.27,4.04,4.9,9.26,4.9,15.68s-1.66,11.67-4.99,15.77c-3.27,4.04-7.99,6.06-14.16,6.06-2.43,0-4.72-.45-6.86-1.34-.95-.36-1.78-.8-2.49-1.34v18.71h-11.58v-47.21ZM527.21,197.31c5.94,0,8.91-5.94,8.91-17.81,0-5.46-.68-9.8-2.05-13-1.37-3.21-3.5-4.81-6.41-4.81-3.33,0-6.21,1.22-8.64,3.65l.27,1.25c.24.71.36,1.72.36,3.03v25.03c.65.53,1.37.98,2.14,1.33,1.66.89,3.47,1.34,5.43,1.34Z"/><path class="cls-4" d="M198.31,148.62s5.45,5.36,8.82,7.05c3.36,1.69,5.29,2.35,8.82,2.35s292.93.56,292.93.56v8.84H215.06s-9.32-.4-12.34-5.87c-3.02-5.48-4.41-12.92-4.41-12.92Z"/><path class="cls-2" d="M66.66,46.77c7.76-17.07,7.45-32.71-.86-44.22-2.86-3.95-.56-3.18,4.27,1.44,6.73,6.43,9.53,11.93,13.12,25.78,1.84,7.07,4.99,16.53,7.01,21.02,4.63,10.3,12.18,23.66,12.65,22.38.2-.53-1.61-5.9-4.02-11.92-8.45-21.13-9.74-28.01-6.88-36.66.81-2.43,2.47-5.58,3.69-7,2.69-3.11,2.89-1.9.44,2.57-4.15,7.57-1.58,20.58,7.24,36.66,4.61,8.41,9.3,23.12,9.3,29.19,0,2.21.48,4.29,1.06,4.62.67.38,1.05-2.33,1.05-7.43,0-6.82-.65-9.82-4.33-19.98-5.1-14.07-6.29-23.01-3.68-27.61.95-1.68,1.84-3.06,1.97-3.05.13,0,.25,4,.28,8.88.04,8.45.28,9.36,4.97,18.96,2.71,5.54,6.23,14.18,7.83,19.2,2.57,8.04,2.9,10.57,2.75,21.35-.09,6.73-.46,13.1-.83,14.16-.37,1.06-.23,1.93.31,1.93,1.31,0,6.13-10.1,7.01-14.7,1.1-5.7-1.35-17.52-5.69-27.53-4.08-9.41-6.02-17.4-4.69-19.35.43-.64,1.34.96,2.11,3.71.75,2.65,3.24,8.45,5.54,12.87,7.68,14.78,8.88,19.21,8.29,30.61-.58,11.15-3.37,20.01-9.27,29.39-1.83,2.91-3.09,5.49-2.8,5.75.28.26,2.49-1.6,4.9-4.14,4.95-5.2,10.91-15.76,12.81-22.68,1.78-6.49.69-17.76-2.67-27.8-3.24-9.65-3.13-12.43.22-6.31,17.05,31.07,4.72,61.75-33.5,83.33-11.43,6.46-18.23,11.45-20.22,14.85-.98,1.67-.92,1.83.32.96.82-.57,3.39-2.36,5.71-3.98,4.47-3.12,19.95-11.78,21.06-11.78,1.9,0,18.7-11.06,22.49-14.8,9.83-9.71,13.97-18.16,16.53-33.68l1.26-7.68.82,5.62c2.81,19.18-10.7,40.52-33.18,52.44-2.61,1.39-7.38,3.91-12.15,6.44-2.11,1.12-4.22,2.24-6.15,3.26-11.24,5.96-21.03,13.65-22.09,17.34-.39,1.37.64.88,3.86-1.82,6.68-5.6,12.53-8.92,28.36-16.1,15.07-6.83,25.27-13.41,31.77-20.5,4.58-5,5.07-3.55.7,2.09-8.34,10.76-15.48,15.97-31.77,23.19-24.44,10.83-28.98,13.79-32.75,21.38-2.45,4.93-4.42,5.17-6.69.82-3.88-7.45-8.43-10.79-25.06-18.42-8.81-4.04-18.87-9.08-22.35-11.19-7.86-4.78-15.93-12.59-19.84-19.21l-2.97-5.04,5.53,5.59c7.91,8,15.38,12.9,30.98,20.32,16.41,7.81,27.39,14.3,30.36,17.96,3.25,4,4.38,3.25,1.68-1.12-3.41-5.52-12.3-11.55-30.33-20.58-23.87-11.95-35.06-23.18-40.25-40.41-1.79-5.94-2.17-9.14-1.69-14.29.95-10.28,2.5-9.75,3,1.02.5,10.65,3.32,17.85,10.49,26.82,6.45,8.07,11.95,11.93,33.25,23.31,7.06,3.78,14.81,8.37,17.23,10.2,5.46,4.15,6.09,4.2,2.7.22-2.67-3.15-11.47-9.19-23.47-16.12-6.85-3.96-19.19-14.42-23.71-20.11-7.71-9.7-11.5-20.39-11.64-32.86-.11-10.17,1.35-16.71,5.66-25.38,3.18-6.4,5.76-8.36,3.88-2.95-2.29,6.58-5.06,17.66-5.7,22.78-1.29,10.35,5.31,26.57,14.47,35.61,2.37,2.34,4.11,3.81,3.87,3.29-.24-.53-2.38-4.7-4.77-9.26-5.3-10.15-6.96-16.9-6.94-28.19.02-10.32,1.76-16.33,8.23-28.44,3.4-6.36,4.72-10.02,4.72-13.04,0-2.56.41-3.97,1.05-3.61,2.2,1.24.9,8.91-3.39,20.1-4.12,10.73-4.45,12.32-4.48,21.66-.03,8.8.3,10.69,2.56,14.88l2.59,4.8.66-16.32c.58-14.49.99-17.18,3.6-24,1.62-4.22,3.66-8.96,4.53-10.52,4.13-7.39,7.63-19.24,7.63-25.85,0-5.39.26-6.49,1.32-5.53.87.8,1.27,4.01,1.19,9.55-.11,6.77-.87,10.44-4.02,19.39-2.58,7.33-4.1,13.75-4.52,19.11-.74,9.4,1.11,10.33,2.17,1.1.95-8.25,4.28-16.78,14.43-37.01,3.97-7.91,5.01-18.88,2.6-27.36-.66-2.33-.63-2.34,1-.51,4.97,5.59,4.74,19.12-.56,32.67-1.86,4.75-4.24,10.8-5.3,13.44-1.05,2.64-1.93,5.88-1.95,7.2-.03,2.63,7.88-11.48,14.08-25.14ZM36.73,124.97c0-18.82,14.33-40.09,35.31-52.4,2.32-1.36,4.69-2.5,5.28-2.53,1.94-.1,14.67,7.99,19.52,12.4,2.62,2.39,6.32,6.44,8.21,9.01,20.79,28.19,15.95,54.97-12.01,66.5-5.17,2.13-7.8,2.58-15.32,2.63-17.25.1-30.09-7.1-37.44-20.97-3.15-5.94-3.54-7.59-3.54-14.64Z"/><path class="cls-5" d="M84.78,82.37c-4.11-2.79-7.71-3.36-11.72-1.87-4.51,1.67-18.48,14.71-22.02,20.56-6.08,10.05-8.35,17.69-7.78,26.27.82,12.45,6.19,19.79,18.23,24.92,5.5,2.34,7.56,2.68,15.81,2.64,11.89-.05,18.34-2.4,25.32-9.2,5.64-5.49,7.59-9.26,8.52-16.49,2.09-16.25-8.23-34.6-26.36-46.85ZM77.3,149.75c-15.72,0-28.47-10.53-28.47-23.52s12.75-23.52,28.47-23.52,28.46,10.54,28.46,23.52-12.75,23.52-28.46,23.52Z"/><path class="cls-4" d="M83.65,146.19c.54,1.1,1.88,1.58,2.99,1.05,3.12-1.49,5.7-3.71,7.4-6.41,2.06-3.27,2.72-7.04,1.85-10.67-.87-3.63-3.19-6.9-6.59-9.24-3.4-2.34-7.66-3.62-12.04-3.62-4.39,0-8.64,1.3-12.03,3.65-3.39,2.36-5.7,5.63-6.55,9.26-.85,3.63-.18,7.41,1.9,10.67,1.71,2.69,4.3,4.9,7.42,6.39,1.11.53,2.45.04,2.99-1.06l4.23-8.67c.84-1.72,3.29-1.73,4.14,0l4.27,8.66Z"/></g></svg>